# xmcd
#
# Track frame offsets: 
#        150
#        11520
#        25332
#        40047
#        61398
#        83140
#        103107
#        123552
#        147309
#        164305
#        188833
#        206680
#        225857
#
# Disc length: 3300 seconds
#
# Revision: 0
# Processed by: cddbd v1.5.2PL0 Copyright (c) Steve Scherf et al.
# Submitted via: ExactAudioCopy v0.99pb4
#
DISCID=a60ce20d
DTITLE=Pawtuckets - Rest Of Our Days
DYEAR=1998
DGENRE=Country
TTITLE0=Blackberry Winter
TTITLE1=Set Up
TTITLE2=Hatchie Bottom
TTITLE3=Punchline
TTITLE4=Mississippi Parking Lot
TTITLE5=Too Far Gone
TTITLE6=Leavin'
TTITLE7=Sweetness
TTITLE8=When It All Comes Down
TTITLE9=Shade
TTITLE10=Shovel Goes Down
TTITLE11=Song For Emily
TTITLE12=Rest Of Our Days
EXTD=
EXTT0=
EXTT1=
EXTT2=
EXTT3=
EXTT4=
EXTT5=
EXTT6=
EXTT7=
EXTT8=
EXTT9=
EXTT10=
EXTT11=
EXTT12=
PLAYORDER=
